<svg xmlns="http://www.w3.org/2000/svg" viewBox="-1203 756 30 30">
  <g id="Group_126" data-name="Group 126" transform="translate(-1915 30)">
    <path id="Path_39" data-name="Path 39" fill="#fff" d="M7.642,952.4a1.122,1.122,0,0,1,1.118,1.118v1.715a2.335,2.335,0,0,1-.5,1.547.18.18,0,0,0,0,.261.2.2,0,0,0,.13.056H12.3a1.122,1.122,0,0,1,1.118,1.118,1.094,1.094,0,0,1-.727,1.044.194.194,0,0,0-.112.242c.019.019.037.056.056.075a1.124,1.124,0,0,1-.317,1.92.194.194,0,0,0-.112.242c.019.019.037.056.056.075a1.122,1.122,0,0,1-.447,1.957.2.2,0,0,0-.13.224c0,.037.019.056.056.075a1.139,1.139,0,0,1,.373.839A1.122,1.122,0,0,1,11,966.024H5.163c-.261,0-.578-.28-.932-.6a2.314,2.314,0,0,0-1.23-.69v-5.89a11.088,11.088,0,0,0,2.292-2.143,9.313,9.313,0,0,0,.895-1.249,2.112,2.112,0,0,0,.373-.988V953.5A1.052,1.052,0,0,1,7.642,952.4ZM0,957.842H2.609v7.642H0Z" transform="translate(720 -219.4)"/>
  </g>
</svg>
